<?xml version="1.0" encoding="utf-8"?>
<!-- Generator: Adobe Illustrator 23.0.1, SVG Export Plug-In . SVG Version: 6.00 Build 0)  -->
<svg version="1.1" id="Laag_1" xmlns="http://www.w3.org/2000/svg" xmlns:xlink="http://www.w3.org/1999/xlink" x="0px" y="0px"
	 viewBox="0 0 15.2 26.4" style="enable-background:new 0 0 15.2 26.4;" xml:space="preserve">
<style type="text/css">
	.st0{clip-path:url(#SVGID_2_);fill:none;stroke:#808080;stroke-width:3;stroke-linecap:round;stroke-miterlimit:10;}
	.st1{clip-path:url(#SVGID_2_);fill:#FFFFFF;}
	.st2{clip-path:url(#SVGID_2_);fill:#808080;}
	.st3{clip-path:url(#SVGID_4_);fill:#808080;}
	.st4{clip-path:url(#SVGID_4_);fill:#FFFFFF;}
</style>
<g>
	<defs>
		<rect id="SVGID_1_" x="-151.97" y="-264.42" width="1280" height="1156.37"/>
	</defs>
	<clipPath id="SVGID_2_">
		<use xlink:href="#SVGID_1_"  style="overflow:visible;"/>
	</clipPath>
	<line class="st0" x1="5.25" y1="14.61" x2="5.25" y2="0.95"/>
	<path class="st1" d="M6.18,10.38c0,0-0.03,0-0.03-0.02V0.38l8.67,4.96l-8.64,5.03L6.18,10.38z"/>
	<path class="st2" d="M6.51,0.95l7.65,4.42L6.51,9.79V0.95 M6.18,0C5.98,0,5.8,0.16,5.8,0.38v9.97c0,0.22,0.18,0.38,0.38,0.38
		c0.06,0,0.13-0.02,0.19-0.05l8.64-4.99c0.25-0.15,0.25-0.51,0-0.66L6.37,0.05C6.31,0.02,6.24,0,6.18,0"/>
</g>
<g>
	<defs>
		<rect id="SVGID_3_" x="-151.97" y="-264.42" width="1280" height="1156.37"/>
	</defs>
	<clipPath id="SVGID_4_">
		<use xlink:href="#SVGID_3_"  style="overflow:visible;"/>
	</clipPath>
	<path class="st3" d="M8.5,13.07H2c-1.1,0-2,0.9-2,2V26.4h10.5V15.07C10.5,13.97,9.6,13.07,8.5,13.07"/>
	<rect x="3.19" y="19.04" class="st4" width="4.13" height="4.13"/>
</g>
</svg>
