<?xml version="1.0" encoding="utf-8"?>
<!-- Generator: Adobe Illustrator 23.0.1, SVG Export Plug-In . SVG Version: 6.00 Build 0)  -->
<svg version="1.1" id="Laag_1" xmlns="http://www.w3.org/2000/svg" xmlns:xlink="http://www.w3.org/1999/xlink" x="0px" y="0px"
	 viewBox="0 0 16.17 25.81" style="enable-background:new 0 0 16.17 25.81;" xml:space="preserve">
<style type="text/css">
	.st0{clip-path:url(#SVGID_2_);fill:#808080;}
	.st1{clip-path:url(#SVGID_2_);fill:#FFFFFF;}
	.st2{clip-path:url(#SVGID_2_);fill:none;stroke:#808080;stroke-width:2.126;stroke-linecap:round;stroke-miterlimit:10;}
</style>
<g>
	<defs>
		<rect id="SVGID_1_" x="-355.78" y="-265.3" width="1280" height="1156.37"/>
	</defs>
	<clipPath id="SVGID_2_">
		<use xlink:href="#SVGID_1_"  style="overflow:visible;"/>
	</clipPath>
	<path class="st0" d="M14.17,12.48H2c-1.1,0-2,0.9-2,2v11.33h16.17V14.48C16.17,13.38,15.27,12.48,14.17,12.48"/>
	<rect x="0.85" y="14.29" class="st1" width="4.13" height="4.13"/>
	<rect x="11.09" y="14.33" class="st1" width="4.13" height="4.13"/>
	<rect x="11.09" y="19.82" class="st1" width="4.13" height="4.13"/>
	<rect x="0.85" y="19.82" class="st1" width="4.13" height="4.13"/>
	<line class="st2" x1="8.28" y1="13.06" x2="8.28" y2="1.06"/>
	<path class="st1" d="M8.38,6.71c0,0-0.03,0-0.03-0.03V0.41l5.47,3.11L8.38,6.71z"/>
	<path class="st0" d="M8.7,0.98l4.45,2.57L8.7,6.11V0.98 M8.38,0.03c-0.2,0-0.38,0.16-0.38,0.38v6.27c0,0.22,0.18,0.38,0.38,0.38
		c0.06,0,0.13-0.02,0.19-0.05l5.43-3.14c0.25-0.15,0.25-0.51,0-0.66L8.56,0.08C8.5,0.05,8.44,0.03,8.38,0.03"/>
	<rect x="6.38" y="20.47" class="st1" width="3.4" height="4.54"/>
</g>
</svg>
