<?xml version="1.0" encoding="utf-8"?>
<!-- Generator: Adobe Illustrator 23.0.1, SVG Export Plug-In . SVG Version: 6.00 Build 0)  -->
<svg version="1.1" id="Laag_1" xmlns="http://www.w3.org/2000/svg" xmlns:xlink="http://www.w3.org/1999/xlink" x="0px" y="0px"
	 viewBox="0 0 24.44 59.46" style="enable-background:new 0 0 24.44 59.46;" xml:space="preserve">
<style type="text/css">
	.st0{clip-path:url(#SVGID_2_);fill:#808080;}
	.st1{clip-path:url(#SVGID_2_);fill:#FFFFFF;}
	.st2{clip-path:url(#SVGID_2_);fill:none;stroke:#808080;stroke-width:3;stroke-linecap:round;stroke-miterlimit:10;}
</style>
<g>
	<defs>
		<rect id="SVGID_1_" x="-555.56" y="-231.54" width="1280" height="1156.37"/>
	</defs>
	<clipPath id="SVGID_2_">
		<use xlink:href="#SVGID_1_"  style="overflow:visible;"/>
	</clipPath>
	<path class="st0" d="M22.44,40.02H2c-1.1,0-2,0.9-2,2v17.44h24.44V42.02C24.44,40.92,23.55,40.02,22.44,40.02"/>
	<path class="st0" d="M18.3,26.69H6.14c-1.1,0-2,0.9-2,2v11.33H20.3V28.69C20.3,27.58,19.41,26.69,18.3,26.69"/>
	<path class="st0" d="M15.47,13.36h-6.5c-1.1,0-2,0.9-2,2v11.33h10.5V15.36C17.47,14.25,16.58,13.36,15.47,13.36"/>
	<rect x="2.08" y="43.35" class="st1" width="4.13" height="4.13"/>
	<rect x="10.16" y="43.35" class="st1" width="4.13" height="4.13"/>
	<rect x="18.24" y="43.4" class="st1" width="4.13" height="4.13"/>
	<rect x="2.08" y="51.22" class="st1" width="4.13" height="4.13"/>
	<rect x="8.36" y="51.22" class="st1" width="7.73" height="6.25"/>
	<rect x="18.24" y="51.27" class="st1" width="4.13" height="4.13"/>
	<rect x="6.12" y="28.5" class="st1" width="4.13" height="4.13"/>
	<rect x="10.16" y="17.96" class="st1" width="4.13" height="4.13"/>
	<rect x="14.2" y="28.54" class="st1" width="4.13" height="4.13"/>
	<rect x="14.2" y="34.03" class="st1" width="4.13" height="4.13"/>
	<rect x="6.12" y="34.03" class="st1" width="4.13" height="4.13"/>
	<line class="st2" x1="12.22" y1="13.5" x2="12.22" y2="1.5"/>
	<path class="st1" d="M12.6,6.78c0,0-0.03,0-0.03-0.02V0.48l5.47,3.11L12.6,6.78z"/>
	<path class="st0" d="M12.93,1.05l4.45,2.57l-4.45,2.57V1.05 M12.6,0.1c-0.2,0-0.38,0.16-0.38,0.38v6.27c0,0.22,0.18,0.38,0.38,0.38
		c0.06,0,0.13-0.02,0.19-0.05l5.43-3.14c0.25-0.15,0.25-0.51,0-0.66l-5.43-3.14C12.73,0.12,12.67,0.1,12.6,0.1"/>
</g>
</svg>
